<svg xmlns="http://www.w3.org/2000/svg" width="1440" height="860" viewBox="0 0 1440 860" role="img" aria-labelledby="t d"><title id="t">Desktop selected prospect detail concept</title><desc id="d">Static product design concept for review; all prospect data is fictional.</desc><style>text{font-family:Inter,Arial,sans-serif;fill:#17242C}.muted{fill:#68757C}.white{fill:#fff}.tiny{font-size:11px}.small{font-size:13px}.body{font-size:14px}.label{font-size:12px;font-weight:700;letter-spacing:.8px}.h1{font-size:25px;font-weight:750}.h2{font-size:17px;font-weight:700}.num{font-size:22px;font-weight:750}.serif{font-family:Georgia,serif}.bold{font-weight:700}</style><rect width="100%" height="100%" fill="#F4F3EF"/><rect width="1440" height="68" fill="#17242C"/><circle cx="28" cy="34" r="13" fill="#00A6A6"/><path d="M21 34h14M28 27v14" stroke="white" stroke-width="2"/><text x="52" y="31" class="white h2">Maya Chen · Prospect cockpit</text><text x="52" y="49" class="tiny" fill="#B9C5C8">Work Now · selected from queue</text><rect x="1130" y="17" width="170" height="34" rx="6" fill="#263740"/><text x="1150" y="39" class="small" fill="#B9C5C8">⌕  Search prospects</text><rect x="1314" y="17" width="102" height="34" rx="6" fill="#00A6A6"/><text x="1333" y="39" class="white small bold">↻ Refresh</text><rect x="24" y="92" width="300" height="736" rx="10" fill="white"/><text x="48" y="126" class="label" fill="#166B55">WORK NOW · 84</text><text x="48" y="164" class="h1">Maya Chen</text><text x="48" y="188" class="small muted">VP, Credentialing</text><text x="48" y="210" class="small muted">National Credentialing Forum</text><line x1="48" y1="232" x2="300" y2="232" stroke="#DCE2E2"/><text x="48" y="262" class="label muted">CONTACT</text><text x="48" y="289" class="small">maya@example.test</text><text x="48" y="314" class="small" fill="#00A6A6">LinkedIn profile ↗</text><text x="48" y="352" class="label muted">SCORE</text><text x="48" y="388" class="num">84</text><rect x="96" y="374" width="184" height="8" rx="4" fill="#E8ECEB"/><rect x="96" y="374" width="154" height="8" rx="4" fill="#166B55"/><text x="48" y="420" class="small">Fit 88 · Urgency 81</text><text x="48" y="444" class="small">Persona 78 · Evidence 86</text><text x="48" y="474" class="small" fill="#00A6A6">Why this score? →</text><rect x="48" y="744" width="252" height="52" rx="7" fill="#166B55"/><text x="126" y="777" class="white body bold">Mark Sent</text><rect x="344" y="92" width="650" height="736" rx="10" fill="white"/><text x="370" y="130" class="h2">Evidence &amp; reasoning</text><text x="370" y="164" class="label" fill="#166B55">✓ VERIFIED FACT</text><text x="370" y="190" class="body bold">A new credential pathway launches this fall.</text><text x="370" y="214" class="tiny muted">Organization announcement · Jun 18, 2026 ↗</text><line x1="370" y1="236" x2="968" y2="236" stroke="#DCE2E2"/><text x="370" y="270" class="label" fill="#00A6A6">◎ PUBLIC RESEARCH</text><text x="370" y="296" class="body bold">The program is designed for external professionals.</text><text x="370" y="320" class="tiny muted">Program page · Jul 25, 2026 ↗</text><line x1="370" y1="342" x2="968" y2="342" stroke="#DCE2E2"/><text x="370" y="376" class="label" fill="#6C648B">◇ INFERENCE · 76%</text><text x="370" y="402" class="body bold">Enrollment and cohort operations may be scaling.</text><text x="370" y="426" class="tiny muted">Based on claims EV-104 and EV-109 · hypothesis only</text><line x1="370" y1="448" x2="968" y2="448" stroke="#DCE2E2"/><text x="370" y="482" class="label" fill="#6C648B">? UNKNOWN</text><text x="370" y="508" class="body bold">Which learning platform supports the new pathway?</text><text x="370" y="532" class="tiny muted">Smallest check: review public learner login and FAQ</text><rect x="370" y="568" width="598" height="102" rx="8" fill="#FFF4E7"/><text x="388" y="594" class="label" fill="#B56B13">REASONING TRACE</text><text x="388" y="620" class="small">Signal → external credential launch</text><text x="388" y="643" class="small">Commercial meaning → timely learner delivery decision</text><text x="388" y="662" class="tiny muted">Validation: ask how delivery and reporting are being planned</text><text x="370" y="716" class="label muted">CHANGED SINCE LAST RUN</text><text x="370" y="744" class="small">+ Launch date verified by an attributable source</text><text x="370" y="769" class="small">+ Evidence score increased from 72 to 86</text><rect x="1014" y="92" width="402" height="736" rx="10" fill="white"/><text x="1040" y="130" class="h2">Outreach review</text><rect x="1040" y="150" width="116" height="28" rx="14" fill="#FFF0D8"/><text x="1054" y="169" class="tiny bold" fill="#B56B13">NEEDS REVIEW</text><text x="1040" y="216" class="label muted">EMAIL · 83 WORDS</text><text x="1040" y="252" class="serif body">Maya — saw the Forum’s new credential</text><text x="1040" y="276" class="serif body">pathway is planned for this fall.</text><text x="1040" y="316" class="serif body">Curious how your team is thinking about</text><text x="1040" y="340" class="serif body">delivery and reporting for external learners.</text><rect x="1040" y="378" width="350" height="42" rx="6" fill="#F1F5F4"/><text x="1155" y="404" class="small bold">Copy email</text><text x="1040" y="464" class="label" fill="#B84D44">FACT-CHECK TARGET</text><text x="1040" y="490" class="small">Confirm launch timing before send prep.</text><text x="1040" y="536" class="label muted">CUSTOMER STORY</text><text x="1040" y="564" class="body bold">Credentialing association</text><text x="1040" y="588" class="small muted">Strong use-case alignment · 82%</text><line x1="1040" y1="620" x2="1390" y2="620" stroke="#DCE2E2"/><text x="1040" y="656" class="label muted">REVIEWER ACTION</text><rect x="1040" y="676" width="350" height="44" rx="6" fill="#00A6A6"/><text x="1124" y="704" class="white small bold">Approve for send prep</text><rect x="1040" y="732" width="350" height="44" rx="6" fill="white" stroke="#DCE2E2"/><text x="1142" y="760" class="small bold">Request changes</text></svg>